<svg xmlns="http://www.w3.org/2000/svg" width="36" height="36" fill="#fff" viewBox="0 0 64 64"><path d="M27.905 50.806A39 39 0 0 1 24 51c-10.169 0-17-3.62-17-7v-5.936C10.086 41.013 16.455 43 24 43s13.914-1.987 17-4.936v5.02c0 1.322 2 1.324 2 0V14c0-5.047-8.346-9-19-9S5 8.953 5 14v30c0 5.047 8.346 9 19 9 1.383 0 2.764-.068 4.105-.204 1.311-.132 1.123-2.117-.2-1.99M41 24c0 3.38-6.831 7-17 7S7 27.38 7 24v-5.936C10.086 21.013 16.455 23 24 23s13.914-1.987 17-4.936zM24 41c-10.169 0-17-3.62-17-7v-5.936C10.086 31.013 16.455 33 24 33s13.914-1.987 17-4.936V34c0 3.38-6.831 7-17 7m0-34c10.169 0 17 3.62 17 7s-6.831 7-17 7-17-3.62-17-7 6.831-7 17-7"/><circle cx="11.5" cy="24.5" r="1.5"/><circle cx="11.5" cy="34.5" r="1.5"/><circle cx="11.5" cy="44.5" r="1.5"/><path d="M35.001 47c1.102 0 1.999.897 1.999 2 0 1.322 2 1.324 2 0 0-2.206-1.794-4-3.999-4S31 46.794 31 49s1.795 4 4.001 4c1.102 0 1.999.897 1.999 2s-.897 2-1.999 2A2 2 0 0 1 33 55c0-1.322-2-1.324-2 0 0 2.206 1.795 4 4.001 4C37.206 59 39 57.206 39 55s-1.794-4-3.999-4C33.897 51 33 50.103 33 49s.897-2 2.001-2M45 45c-2.206 0-4 1.794-4 4v6c0 2.206 1.794 4 4 4 .74 0 1.424-.215 2.019-.567l.274.274c.922.922 2.362-.467 1.414-1.414l-.274-.274A3.95 3.95 0 0 0 49 55v-6c0-2.206-1.794-4-4-4m.707 9.293c-.936-.936-2.349.479-1.414 1.414l1.218 1.218A2 2 0 0 1 45 57c-1.103 0-2-.897-2-2v-6c0-1.103.897-2 2-2s2 .897 2 2v6c0 .178-.031.347-.075.511zM58 57h-5V46c0-1.322-2-1.324-2 0v12a1 1 0 0 0 1 1h6c1.322 0 1.324-2 0-2"/></svg>