<svg style="transform: rotate(-45deg);" fill="none" height="36" viewBox="0 0 32 32" width="36" xmlns="http://www.w3.org/2000/svg" ><g clip-rule="evenodd" fill="#fff" fill-rule="evenodd"><path d="m20.7071 11.2929c.3905.3905.3905 1.0237 0 1.4142l-14.99999 15c-.39053.3905-1.02369.3905-1.41422 0-.39052-.3905-.39052-1.0237 0-1.4142l15.00001-15c.3905-.3905 1.0237-.3905 1.4142 0z"></path><path d="m8.73028 23.2697c4.58602 2.6543 9.00172 2.1134 12.21332-.8766 3.2089-2.9876 5.3855-8.5828 5.1008-16.43751-7.8547-.28465-13.4499 1.89192-16.43753 5.10081-2.99003 3.2115-3.5309 7.6273-.87659 12.2133zm-.5872-13.57611c3.64992-3.92025 10.24212-6.20206 18.91562-5.69185.5061.02977.9098.43349.9396.93955.5102 8.67351-1.7717 15.26571-5.6919 18.91561-3.9881 3.7131-9.484 4.2028-14.82092 1.0006-.14075-.0844-.25855-.2022-.343-.343-3.20214-5.3369-2.7125-10.8328 1.0006-14.82091z"></path></g></svg>