<svg xmlns="http://www.w3.org/2000/svg" width="36" height="36" fill="none" style="transform:rotate(-45deg)" viewBox="0 0 32 32"><g fill="#fff" fill-rule="evenodd" clip-rule="evenodd"><path d="M20.707 11.293a1 1 0 0 1 0 1.414l-15 15a1 1 0 0 1-1.414-1.414l15-15a1 1 0 0 1 1.414 0"/><path d="M8.73 23.27c4.586 2.654 9.002 2.113 12.214-.877 3.209-2.988 5.385-8.583 5.1-16.437-7.854-.285-13.45 1.892-16.437 5.1-2.99 3.212-3.531 7.628-.877 12.214M8.143 9.694c3.65-3.92 10.242-6.202 18.916-5.692a1 1 0 0 1 .94.94c.51 8.673-1.772 15.265-5.693 18.915-3.988 3.713-9.484 4.203-14.82 1a1 1 0 0 1-.344-.342C3.94 19.178 4.43 13.682 8.143 9.694"/></g></svg>