<svg xmlns="http://www.w3.org/2000/svg" width="36" height="36" viewBox="0 0 40 40"><path d="M14.29 19.84a7 7 0 0 1-.3-.67 3 3 0 0 1-.1-.83v-3A3.1 3.1 0 0 0 13.1 13a3.4 3.4 0 0 0-2.44-.76 5.7 5.7 0 0 0-1.45.18 5.2 5.2 0 0 0-1.21.45.7.7 0 0 0-.26.2.6.6 0 0 0-.06.32v.46c0 .19.06.29.19.29h.15l.36-.14a8 8 0 0 1 1-.32 4.5 4.5 0 0 1 1-.12 2.14 2.14 0 0 1 1.52.43 2.06 2.06 0 0 1 .43 1.49v.68c-.37-.09-.72-.16-1.07-.21a9 9 0 0 0-1-.07A3.34 3.34 0 0 0 8 16.6a2.37 2.37 0 0 0-.85 1.91 2.37 2.37 0 0 0 .69 1.79 2.53 2.53 0 0 0 1.87.7 3.46 3.46 0 0 0 2.74-1.28 6 6 0 0 0 .29.55 2.6 2.6 0 0 0 .33.43.4.4 0 0 0 .28.13.38.38 0 0 0 .24-.08l.59-.39a.32.32 0 0 0 .11-.49Zm-1.93-2.26a3.1 3.1 0 0 1-.09.81A1.5 1.5 0 0 1 12 19a2.2 2.2 0 0 1-.88.6 3 3 0 0 1-1 .16 1.38 1.38 0 0 1-.87-2.4 2.18 2.18 0 0 1 1.38-.36c.29 0 .58 0 .88.05s.58.1.85.16ZM17 20.3a.8.8 0 0 0 .19.37.58.58 0 0 0 .36.09h.8a.6.6 0 0 0 .37-.09.74.74 0 0 0 .18-.38l1.43-6 1.45 6a.6.6 0 0 0 .17.37.56.56 0 0 0 .38.1h.8a.56.56 0 0 0 .35-.1.7.7 0 0 0 .2-.36L26 13.11a.7.7 0 0 0 .06-.23 1 1 0 0 0 0-.15.2.2 0 0 0-.23-.23h-.87a.7.7 0 0 0-.36.09.84.84 0 0 0-.18.36l-1.62 6.24L21.31 13a.64.64 0 0 0-.17-.36.62.62 0 0 0-.38-.09H20a.47.47 0 0 0-.55.45L18 19.12 16.45 13a.8.8 0 0 0-.18-.36.57.57 0 0 0-.37-.09H15c-.15 0-.22.08-.22.23a1.3 1.3 0 0 0 .08.37Zm10 .17a4 4 0 0 0 1.07.37 6.3 6.3 0 0 0 1.43.17 4.5 4.5 0 0 0 1.34-.2 2.9 2.9 0 0 0 1-.52 2.45 2.45 0 0 0 .68-.82 2.35 2.35 0 0 0 .24-1.08 2.1 2.1 0 0 0-.43-1.3A2.8 2.8 0 0 0 31 16.2l-1.32-.42a2.8 2.8 0 0 1-1-.52.9.9 0 0 1-.28-.66.91.91 0 0 1 .44-.83 2.5 2.5 0 0 1 1.16-.26 4.15 4.15 0 0 1 1.79.37 1.1 1.1 0 0 0 .35.11c.14 0 .22-.1.22-.3v-.44a.45.45 0 0 0-.09-.3.76.76 0 0 0-.28-.24 2.6 2.6 0 0 0-.39-.17c-.17 0-.34-.1-.53-.14l-.6-.11h-.63a4 4 0 0 0-1.17.15 3 3 0 0 0-1 .49 2.3 2.3 0 0 0-.67.76 2.05 2.05 0 0 0-.25 1 2.27 2.27 0 0 0 .46 1.35 2.88 2.88 0 0 0 1.49.95l1.35.42a2.1 2.1 0 0 1 .94.48.9.9 0 0 1 .26.65 1 1 0 0 1-.49.89 2.56 2.56 0 0 1-1.36.3 5.3 5.3 0 0 1-1.11-.11 5 5 0 0 1-1-.32l-.23-.1h-.17c-.14 0-.22.1-.22.29V20a.6.6 0 0 0 .06.26.7.7 0 0 0 .32.21Zm3.82 4.36A27.7 27.7 0 0 1 20.3 27a28 28 0 0 1-13.86-3.69c-.34-.2-.6.15-.32.41A20.52 20.52 0 0 0 20 29a20.1 20.1 0 0 0 11.34-3.46c.48-.38.04-.94-.47-.71Zm3-1.75c-.33-.41-3.21-.77-5 .46-.27.2-.22.46.07.42 1-.12 3.2-.38 3.59.12s-.44 2.57-.81 3.5c-.11.27.13.39.38.17 1.75-1.38 2.18-4.25 1.84-4.67Z" style="fill:#fff"/></svg>