<svg xmlns="http://www.w3.org/2000/svg" width="36" height="36" viewBox="0 0 512 512"><path fill="#fff" d="M50 0h412c27.614 0 50 22.386 50 50v412c0 27.614-22.386 50-50 50H50c-27.614 0-50-22.386-50-50V50C0 22.386 22.386 0 50 0"/><path fill="#fff" d="M50 0h412c27.614 0 50 22.386 50 50v412c0 27.614-22.386 50-50 50H50c-27.614 0-50-22.386-50-50V50C0 22.386 22.386 0 50 0"/><path fill-rule="evenodd" d="M316.939 407.424v50.061q12.207 6.258 28.875 9.386c16.668 3.128 22.823 3.129 35.135 3.129 21.219 0 44.448-3.035 62.602-14.784C461.615 443.525 470 424.076 470 403.044c0-15.637-4.851-30.684-15.807-42.081-16.429-17.091-39.516-24.022-60.255-34.183-10.389-5.09-24.727-12.992-24.727-26.361q0-5.161 2.661-9.307c7.132-11.113 22.973-13.376 35.057-13.376 13.717 0 28.189 3.071 40.926 8.76q6.651 2.973 12.285 6.884v-46.776q-11.424-4.38-24.962-6.492C421.64 238 415.797 238 404.112 238q-17.842 0-33.805 3.833c-15.963 3.833-20.006 6.544-28.093 11.967q-12.129 8.136-19.171 20.729Q316 287.121 316 304.643q0 22.371 12.912 38.172 12.91 15.8 39.204 26.751c11.792 4.822 24.053 9.581 34.665 16.739 7.355 4.96 14.007 11.877 14.007 21.275 0 6.821-3.856 12.604-9.468 16.192-8.303 5.308-18.936 6.492-28.563 6.492q-16.276 0-32.24-5.71-15.962-5.709-29.578-17.13M232.78 284.082H297V243H118v41.082h63.906V467h50.874z" clip-rule="evenodd"/></svg>