<svg xmlns="http://www.w3.org/2000/svg" xml:space="preserve" width="36" height="36" fill="#fff" viewBox="0 0 512 512"><path d="m202.82 342.63-.04-.08c.77-.41 1.55-.84 2.35-1.27 3.72 13.77 3.31 26.62-.54 38.26-.42 1.29-.89 2.57-1.41 3.83-.51 1.26-1.06 2.51-1.65 3.74-2.97 6.15-6.95 11.92-11.83 17.24-14.87 16.22-35.65 22.36-44.56 17.19-9.63-5.58-4.81-28.46 12.44-46.69 18.55-19.61 45.24-32.22 45.24-32.22" style="fill-rule:evenodd;clip-rule:evenodd"/><path d="M256 0C114.62 0 0 114.62 0 256s114.62 256 256 256 256-114.62 256-256S397.38 0 256 0m83.47 226.98c-44.38 17.17-81.08 14.45-96.15 9.51-17.14-5.63-27.19-16.93-29.64-23.31-.96-2.49-2.62-6.69 0-8.14 1.61-.89 2.25-.68 6.56 4.07 4.1 4.51 20.55 16.63 51.81 13.12 82.03-9.19 131.44-72.93 115.83-107.23-10.93-24-74.17-34.84-153.16 4.53-96.43 48.05-101.66 87.66-102.48 102.7-2.26 41.38 51.07 63.16 79.92 93.94q1.02 1.08 1.98 2.19c8.73-3.25 20.82-5.08 40.04-5.41 46.66-.8 73.02 29.96 71.94 57.46-.85 21.66-20.74 30.59-24.43 31.21-2.69.46-4.15.53-4.53-1.57-.26-1.45.7-2.12 3.85-4.07s12.57-8.4 14.25-20.14c1.68-11.73-7.13-39.77-52.03-45.02-15.92-1.86-28.44-.59-39.18 2.25 7.78 17.16 9.28 51.68-8.64 78.4-18.57 27.7-53.12 44.55-86.79 35.18-10.87-3.02-27.28-25.48-13.12-56.78 13.42-29.67 70.76-58.69 78.6-62.55v-.13c-26.57-22.88-91.21-53.71-100.32-100.88-2.58-13.37 3.69-45.37 42.99-82.12 33.05-30.92 79.02-54.6 121.48-69.68 71.35-25.35 146.74-10.4 158.33 35.06 11.4 44.71-27.41 98.19-77.11 117.41" style="fill-rule:evenodd;clip-rule:evenodd"/></svg>